<?xml version="1.0" encoding="UTF-8"?>
<svg id="Capa_2" data-name="Capa 2" xmlns="http://www.w3.org/2000/svg" viewBox="0 0 945.21 723">
  <defs>
    <style>
      .cls-1 {
        fill: #6e318a;
        stroke: #fff;
        stroke-miterlimit: 10;
      }
    </style>
  </defs>
  <path class="cls-1" d="m454.71,722.5L182.71,128.44v472.06c0,43.36,4.73,70.41,14.2,81.16,12.97,14.56,33.48,21.84,61.55,21.84h25.25v19H35.71v-19h25.25c30.16,0,51.55-9.02,64.17-27.05,7.72-11.09,11.58-36.42,11.58-75.95V138.5c0-31.2-3.52-53.75-10.52-67.62-4.92-10.06-13.95-18.47-27.11-25.23-13.16-6.75-34.28-10.14-63.38-10.14v-19h201.38l254.8,551.67L743.38,16.5h201.33v19h-24.72c-30.52,0-52.08,9.02-64.7,27.05-7.72,11.11-11.58,36.42-11.58,75.95v462c0,43.36,4.91,70.41,14.73,81.16,12.97,14.56,33.48,21.84,61.55,21.84h24.72v19h-302v-19h25.25c30.5,0,51.89-9.02,64.17-27.05,7.72-11.09,11.58-36.42,11.58-75.95V128.44l-272,594.06h-17Z"/>
  <path class="cls-1" d="m595.48,486.5h-273.22l-47.7,111.19c-11.8,27.45-17.69,47.95-17.69,61.5,0,10.78,5.11,20.27,15.34,28.42,10.22,8.16,32.33,13.45,66.31,15.89v19H115.69v-19c29.47-5.22,48.53-12.02,57.2-20.39,17.67-16.72,37.27-50.69,58.77-101.91L479.68.5h18.78l245.09,587.31c19.75,47.25,37.69,77.92,53.81,91.98s38.58,21.97,67.36,23.7v19h-278.14v-19c28.08-1.38,47.06-6.06,56.94-14.06s14.83-17.72,14.83-29.19c0-15.28-6.94-39.44-20.8-72.44l-42.08-101.31Zm-15.78-38l-118.64-284.97-122.48,284.97h241.12Z"/>
</svg>